<svg viewBox="0 0 240 240" xmlns="http://www.w3.org/2000/svg" width="240" height="240" aria-label="Pulse hearts loader" role="img">
  <defs>
    <!-- small neon pink heart path, optimized -->
    <path id="heart" d="M12 0 C5 0 0 6 0 12 C0 22 12 28 18 36 C24 28 36 22 36 12 C36 6 31 0 24 0 C18 0 12 4 12 0 Z" fill="none" stroke="#e60073" stroke-width="2" opacity="0.9"/>
    <!-- simplified heart outline for better rendering -->
    <path id="heartOutline" d="M0 0 C-6 -2 -8 2 -8 6 C-8 14 2 20 8 26 C14 20 24 14 28 6 C32 -2 20 -6 14 -6 C8 -6 0 -2 0 0 Z" fill="none" stroke="#e60073" stroke-width="2"/>
  </defs>

  <!-- Base group centered at 120,120 -->
  <g transform="translate(120,120)">
    <!-- Heart 1 -->
    <g transform="translate(-60,-30)">
      <path d="M0 0 C-6 -10 -14 -14 -22 -6 C-28 2 -26 14 -14 22 C-2 30 0 28 0 30 C0 28 2 30 14 22 C26 14 28 2 22 -6 C14 -14 6 -10 0 0 Z" fill="none" stroke="#e60073" stroke-width="2" opacity="0.9"/>
      <path d="M0 0 C-6 -10 -14 -14 -22 -6 C-28 2 -26 14 -14 22 C-2 30 0 28 0 30 C0 28 2 30 14 22 C26 14 28 2 22 -6 C14 -14 6 -10 0 0 Z" fill="none" stroke="#ff4db2" stroke-width="1.2" opacity="0.3"/>
      <circle cx="0" cy="0" r="0" fill="none">
        <animate attributeName="r" values="0;0" dur="0.01s" fill="freeze"/>
      </circle>
      <!-- pulse via scale using transform with animateTransform -->
      <g transform="scale(0.9)">
        <use href="#heart" transform="translate(0,0)"/>
      </g>
      <animateTransform attributeName="transform" type="scale" values="0.9;1.15;0.95;1" begin="0.0s" dur="1.1s" repeatCount="indefinite" additive="sum" keyTimes="0;0.25;0.75;1" keySplines="0.42 0 0.58 1;0.42 0 0.58 1;0.42 0 0.58 1"/>
    </g>

    <!-- Heart 2 -->
    <g transform="translate(-20,-60)">
      <path d="M0 0 C-6 -10 -14 -14 -22 -6 C-28 2 -26 14 -14 22 C-2 30 0 28 0 30 C0 28 2 30 14 22 C26 14 28 2 22 -6 C14 -14 6 -10 0 0 Z" fill="none" stroke="#e60073" stroke-width="2" opacity="0.9"/>
      <animateTransform attributeName="transform" type="translate" values="00;-0 0;-0 0;0 0" begin="0.0s" dur="1.1s" repeatCount="indefinite"/>
      <animateTransform attributeName="transform" type="scale" values="0.9;1.15;0.95;1" begin="0.15s" dur="1.1s" repeatCount="indefinite" />
    </g>

    <!-- Heart 3 -->
    <g transform="translate(60,-60)">
      <path d="M0 0 C-6 -10 -14 -14 -22 -6 C-28 2 -26 14 -14 22 C-2 30 0 28 0 30 C0 28 2 30 14 22 C26 14 28 2 22 -6 C14 -14 6 -10 0 0 Z" fill="none" stroke="#e60073" stroke-width="2" opacity="0.9"/>
      <animateTransform attributeName="transform" type="scale" values="0.92;1.18;0.92" dur="1.0s" begin="0.25s" repeatCount="indefinite" />
    </g>

    <!-- Heart 4 -->
    <g transform="translate(-60,30)">
      <path d="M0 0 C-6 -10 -14 -14 -22 -6 C-28 2 -26 14 -14 22 C-2 30 0 28 0 30 C0 28 2 30 14 22 C26 14 28 2 22 -6 C14 -14 6 -10 0 0 Z" fill="none" stroke="#e60073" stroke-width="2" opacity="0.9"/>
      <animateTransform attributeName="transform" type="translate" values="0;0;0;0" dur="1.2s" begin="0.3s" repeatCount="indefinite"/>
    </g>

    <!-- Heart 5 -->
    <g transform="translate(20,30)">
      <path d="M0 0 C-6 -10 -14 -14 -22 -6 C-28 2 -26 14 -14 22 C-2 30 0 28 0 30 C0 28 2 30 14 22 C26 14 28 2 22 -6 C14 -14 6 -10 0 0 Z" fill="none" stroke="#e60073" stroke-width="2" opacity="0.9"/>
      <animateTransform attributeName="transform" type="scale" values="0.88;1.1;0.92" dur="1.0s" begin="0.6s" repeatCount="indefinite"/>
    </g>
  </g>

  <!-- Subtle outer glow ring for neon touch -->
  <circle cx="120" cy="120" r="60" fill="none" stroke="#00e6ff" stroke-width="1" opacity="0.25">
    <animate attributeName="r" values="60;72;60" dur="1.8s" repeatCount="indefinite" />
  </circle>
</svg>